<?xml version="1.0" encoding="UTF-8"?>
<svg id="Livello_1" data-name="Livello 1" xmlns="http://www.w3.org/2000/svg" viewBox="0 0 1080 1080">
  <defs>
    <style>
      .cls-1 {
        fill: #ec1e25;
      }

      .cls-2 {
        fill: #fefefe;
      }

      .cls-3 {
        fill: #fefbfa;
      }
    </style>
  </defs>
  <path class="cls-1" d="M1070,540c0,292.7-237.3,530-530,530S10,832.7,10,540,247.3,10,540,10s530,237.3,530,530ZM1057.29,540.07c0-285.69-231.61-517.29-517.29-517.29S22.71,254.38,22.71,540.07s231.61,517.29,517.29,517.29,517.29-231.61,517.29-517.29Z"/>
  <path class="cls-3" d="M1057.29,540.07c0,285.69-231.61,517.29-517.29,517.29S22.71,825.75,22.71,540.07,254.32,22.78,540,22.78s517.29,231.61,517.29,517.29ZM601.16,66.79c-15.62,0-30.91-1.72-46.6-2.32-2.98-.13-7.94-2.78-8.21-2.45-4.04,3.91,6.22,5.23,7.15,10.66,2.18,12.64-1.06,45.28-2.45,59.64-.66,6.88-2.12,27.54-3.97,31.71-2.25,5.03-9.07,1.92-10.33,7.61l51.23,4.9c8.21-.6,8.54-19.92,13.11-26.28-7.15-.4-6.29,8.14-11.78,13.17-7.88,7.21-30.58,6.49-31.18-2.45l4.83-41.7c13.7,1.92,26.74,1.32,23.83,19.06,4.04,0,4.57-7.94,4.77-10.72.73-9-.53-18.4,0-27.4-5.16,1.46-.26,9.73-7.08,13.11-5.82,2.85-15.03.53-21.45,1.19l2.38-42.89c7.28-.4,26.41.4,29.85,7.15,2.71,5.3-2.18,13.77,5.89,11.91v-23.9ZM524.91,64.41h-26.21c-1.72,7.28,4.83,3.57,8.34,7.08,7.02,7.08,6.29,56.59,9.53,69.1l-49.98-69.3c-5.76-4.5-13.24,1.72-20.39.26,1.79,4.5,7.94,3.84,11.98,8.27,2.52,2.71,4.1,6.02,4.57,9.73-2.05,13.3,11.45,74.53,6.95,81.75-1.32,2.05-9.6.66-9.2,5.1l26.21-2.38c.33-4.17-5.23-1.72-8.41-4.7-6.62-6.22-7.08-61.49-10.66-73.94l57.12,76.25c2.58-15.42-13.9-95.32-8.47-102.66,2.32-3.18,9-.07,8.47-4.57h.13ZM634.52,91.81c3.64,28.79-2.71,64.54,0,94.13,5.49,1.32,3.91-.99,5.49-2.98,21.84-28.2,32.96-69.24,61.23-92.27l-23.83-4.77c1.06,3.18,4.24,4.57,4.83,8.47,1.85,12.51-29.32,51.23-34.62,65.4,1.13-14.1-9-68.05,0-76.32,3.18-2.98,8.67-.46,8.41-4.7l-28.6-7.15c-.79.73,6.62,16.22,7.15,20.25l-.07-.07ZM429.59,73.94l-30.98,7.15,9.53,3.51c7.94,24.36,18.47,54.21,22.7,79.76,1.85,11.25,3.71,14.69-6.09,21.58l30.98-7.15c-.6-5.16-10.33.13-11.52-6.29-.99-17.74-25.15-76.72-21.45-89.62.79-2.71,7.88-8.01,6.75-8.87l.07-.07ZM389.08,121.6l-14.23-28.59c2.71,11.78-9.07,5.89-17.74,7.28-41.9,6.55-23.7,101.87,24.03,103.86,9.6.4,30.91-7.55,33.82-17.54,4.5-15.49-23.37-38.13-9.13-53.09-4.04,1.59-25.02,8.27-26.21,9.53-5.96,6.42,5.96,2.78,7.08,3.38,3.57,1.65,19.13,34.68,19.06,38.39-.13,9.8-17.08,11.78-24.82,10.52-27.73-4.37-57.52-86.58-19-90.42,13.11-1.32,17.67,10.79,27.14,16.68h0ZM729.97,166.94c1.06-1.06,17.01.07,26.15-13.17,21.78-31.77-10.59-44.48-35.74-53.62.93,3.18,4.43,4.5,4.83,8.41.53,4.77-38.66,83.73-42.96,85.85-1.72.86-15.82-3.38-9.53,3.38,1.06,1.13,24.49,10.39,28.6,11.91-15.29-5.63,10.33-49.91,13.11-49.98,16.02-.46-14.1,72.61,22.64,66.66-9.2-4.77-9.2-57.26-7.02-59.44h-.07ZM274.7,145.43c-1.65-1.59-27.8,14.89-23.83,19.06,3.57-1.26,5.3-3.11,9.4-1.32,4.3,1.92,54.94,71.69,54.94,76.39,0,4.17-7.48,7.02-3.64,10.66,2.65-2.38,28.99-17.34,25.02-21.45-12.64,7.55-17.87-5.82-24.76-14.56-7.48-9.53-39.52-52.09-39.72-60.5,0-3.18,1.52-5.56,2.52-8.34l.07.07ZM841.84,171.64c-4.3-.6-6.88,3.04-10.19,5.23-20.85,13.83-49.71,41.57-69.9,51.63-5.23,2.58-9.33,3.24-15.16,2.71,2.85,4.77,10.46,12.64,15.56,14.23,6.88,2.18.66-6.69,1.46-10.19s16.68-15.22,20.32-15.56c3.38-.33,22.24,13.77,21.98,17.01-6.82,10.46-5.36,28.46-21.18,24.29l20.32,17.81,2.78-18.6,34.09-88.56h-.07ZM276.22,282.78c27.54-30.45,2.18-69.9-28.46-85.45-32.7-16.55-47.13,7.41-68.38,27.93,5.56,2.18,6.82-3.18,13.17.99,7.55,4.96,50.84,49.05,57.12,57.32,5.89,7.74,6.75,9.27,3.57,19.13,6.16-6.49,17.47-13.83,22.97-19.92ZM888.83,540.07c0-192.69-156.21-348.9-348.9-348.9s-348.9,156.21-348.9,348.9,156.21,348.9,348.9,348.9,348.9-156.21,348.9-348.9ZM866.86,300.32c-10.99,1.13-23.37-.79-34.55,0,2.32,6.82,19,32.57,23.9,34.62,4.37,1.85,17.47-3.57,19-8.41-14.63,3.38-18.6-11.98-26.21-21.45,22.51-2.78,52.03,0,71.36-13.3,32.24-22.17,8.54-58.58-23.63-33.16,11.72-1.39,29.19-3.97,25.81,13.7-3.38,17.67-40.64,26.48-55.6,28h-.07ZM162.71,283.7c-.79-.86-18.47-6.49-21.38-9.6l-26.21,47.66c8.14-7.15,10-4.43,18.27-.4,22.97,11.25,44.48,29.92,68.11,40.77l5.3,14.36c3.71-6.75,27.87-41.97,27.07-46.14-.6-3.18-14.89-15.36-18.67-18.2.73,7.74,10.39,13.44,9.13,22.04-.6,3.91-10.46,20.98-14.69,20.59-6.55-.6-28-19.92-37.2-21.45,3.18-12.05,10.13-24.56,23.7-16.48,3.77-4.3-22.97-19.13-26.21-16.68,12.91,10.92.2,16.15-2.45,28.59l-38.06-21.51c7.41-8.14,9.2-25.02,22.44-23.76,1.92.2,18.27,8.6,10.92,0l-.07.2ZM879.96,350.36c25.55.46,64.14,9.6,83.4-13.11,21.12-24.89-12.38-43.69-30.98-25.09,10.52-3.24,25.95-.86,23.9,12.97-19.66,32.7-64.01,19.13-95.38,18,4.24,5.69,15.82,35.55,19.53,37.73,4.37,2.58,24.03-4.5,20.98-6.75-13.83,2.25-18.14-13.57-21.45-23.83v.07ZM200.83,386.17c-12.97-5.63-90.02-28.66-94.13-35.74-2.12-3.64.93-9.86-3.51-9.53l-7.15,23.83c3.18-1.13,4.57-4.1,8.41-4.83,5.82-.99,51.3,15.16,59.64,18.86,2.85,1.26,4.3-1.13,3.38,4.96l-84.13,11.85-6.42,19.13c8.74-.26,5.03-10.19,16.75-8.54,8.34,1.19,67.52,22.7,75.46,27.14,5.03,2.78,9.73,5.36,5.56,11.25,4.96,6.95,12.71-21.51,11.85-22.64-3.57.86-5.16,5.82-8.87,6.82-3.97,1.06-56.33-17.41-64.01-20.85-2.85-1.26-4.3,1.13-3.38-4.96,28.86-3.64,58.38-6.69,86.91-11.98,3.84-.73,4.17,1.65,3.57-4.63l.07-.13ZM1011.02,429c-.93-4.3-4.7-4.43-8.27-4.83-27.8-3.04-65.27,1.99-92.87-2.45-5.96-.93-8.47-4.3-13.24-7.02l4.77,23.83c4.17.33,1.72-5.16,4.7-8.34,4.96-5.43,28.26-2.58,30.58,2.85.86,1.92,4.7,17.28,4.77,19.13.2,5.23-27.4,20.92-32.9,10.19l4.77,26.21,9.53-10.66,88.1-48.92h.07ZM107.43,441.51c-50.77,3.91-56.73,49.38-9,67.25,20.98,7.88,57.72,9.07,71.02-12.31,20.78-33.36-33.96-57.19-62.02-55.01v.07ZM1025.32,548.14c-13.64-2.12-1.19-10.66-.79-20.65,1.85-52.16-121.73-52.36-108.22,11.78.33,1.72,6.29,15.16,7.02,15.62,4.37,2.78,35.08-1.39,43.75.33,6.88,1.32,3.64,6.75,8.27,7.21v-28.6c-4.43.99-4.5,7.81-8.67,9.13-3.71,1.19-31.44,3.51-35.41,2.78-8.87-1.72-9.6-14.56-7.81-22.11,7.02-30.51,123.51-31.57,87.77,18.67l-19.2,10.59,15.16-.26,18.14-4.43v-.07ZM64.94,521.93s-5.03-.93-4.7,1.19v27.4c7.74,1.99,2.85-5.1,6.16-7.35,5.23-3.57,92.14-3.51,97.3,0,3.31,2.25-1.59,9.33,6.16,7.35v-28.6c-7.74-1.99-2.85,5.1-6.16,7.35-6.22,4.24-89.43,3.57-96.24-1.59-2.25-1.72-2.12-5.43-2.45-5.76h-.07ZM169.85,562.44h-30.98l21.58,8.21c5.82,10.46,5.03,23.17,7.02,34.68l-107.23-30.91,7.15,52.42,28.59-2.45c-1.19-4.77-10.39-1.46-15.03-2.85-10.59-3.18-8.67-23.83-11.19-32.9l103.66,33.29c2.25-1.79,2.98-2.25,3.04-5.23.2-15.49-8.08-37.6-6.62-54.28h0ZM943.71,574.95c-29.65,4.3-45.01,30.85-21.64,53.81,33.82,33.23,121.13,16.22,89.96-30.38-12.91-19.33-46.4-26.54-68.31-23.37v-.07ZM179.39,631.54c-22.37-.79-78.64,31.18-96.38,28.66-4.57-.66-6.09-5.63-10.86-4.83,3.64,6.16,4.1,14.17,6.95,20.45,5.76,12.84,3.84-6.75,6.49-8.8,9.8-7.81,51.56-13.97,65.2-21.18l-56.93,61.16c-4.83,4.3,3.77,31.77,6.82,18.6,2.18-9.6.53-10.52,10.72-15.56,7.81-3.91,64.87-23.1,71.88-23.63,10.26-.79,6.75,2.52,12.84,7.08,0-6.22-1.92-14.96-4.5-20.45-5.56-11.85-3.91,4.37-6.42,6.42-10.33,8.41-53.02,15.69-67.65,21.18l61.96-69.04-.13-.07ZM934.77,655.37c-1.19-1.26-28.73-8.21-33.36-9.53,6.95,11.25-1.85,12.51-5.76,19.2-12.58,21.78,14.76,37.99,35.61,35.61,14.3-1.59,22.77-14.76,34.42-18,38.33-10.59,30.85,38.99-7.02,26.28l30.91,13.11c-5.23-10.79,2.85-10.99,6.62-18.4,10.72-21.05-17.34-37.33-35.81-33.49-16.48,3.38-39.12,31.77-56.59,12.64-15.75-17.28,14.23-32.5,29.85-22.7,1.99.33,1.32-4.5,1.13-4.7ZM229.43,748.31c1.52-1.92-19.2-40.05-21.78-43.69-6.82-9.53-12.78-5.63-22.57-1.85-2.98,1.13-7.35.46-8.08,5.03,6.55,1.06,18.34-2.05,23.83,1.26,4.63,2.78,11.19,17.54,9.27,23.43-.79,2.38-34.29,20.98-36.41,20.45-6.42-1.52-12.64-23.5-3.84-28.4-1.39-1.19-24.89,9.73-26.21,14.23,16.48-3.77,17.21,7.08,23.83,19.06l-36.8,19.26c-9.93-14.69-17.21-24.49-1.32-38.26-4.5-.6-20.78,10.39-20.98,13.04s23.23,41.57,28.13,46.47l2.38-13.17c21.51-10.26,41.44-24.49,62.75-34.95,10.13-4.96,17.41-11.45,27.8-1.99v.07ZM880.69,721.37c-4.77-4.1.2-9.33-1.85-13.57-3.57,3.38-17.47,26.21-15.49,28.6,5.82-4.1,6.88-5.76,14.3-3.71,21.51,5.89,51.83,31.71,73.8,40.71,7.21,14.56-12.44,18.34-23.76,13.11,3.11,5.3,19.13,13.9,23.83,10.86,2.12-1.39,24.56-41.63,25.29-44.15,2.65-9.33-14.23-11.78-19.39-16.68.46,5.82,9.53,8.94,9.8,15.42.2,4.24-4.3,13.37-9.4,12.84l-77.18-43.22.07-.2ZM173.43,722.09v2.38c1.52-.79,1.52-1.59,0-2.38ZM833.1,775.31c-34.55,34.55,44.88,103.33,77.71,76.52,39.58-32.3-44.15-110.08-77.71-76.52ZM196.07,874.6c-.26-5.03-.4-9.27,1.32-14.23,5.82-16.81,41.9-57.26,53.02-78.04,1.46-2.65,3.77-4.24,2.85-7.88l-92.93,41.83-14.23-1.32c-1.06.93,9.66,14.23,11.25,16.02,1.39,1.59-.13,4.57,5.43,3.04,0-4.63-1.19-9.13,2.38-13.17,7.35-8.34,52.23-21.78,64.34-28.6-7.35,9.93-34.62,60.04-44.08,60.9-3.18.26-5.49-1.65-8.21-2.45-2.12,2.12,14.83,22.77,19,23.83l-.13.07ZM272.32,905.58l14.23-92.93c-14.69,10.19-54.48,74.66-66.66,77.64-3.51.86-6.29-1.39-9.6-1.39,1.06,4.24,18.86,19,21.45,16.61-.26-2.65-3.71-3.91-4.43-6.49-2.32-8.21,35.48-48.85,42.5-57.85l-14.43,86.51,16.81,11.19c-6.88-14.96-4.5-16.02,3.84-28.4,5.03-7.48,40.24-52.16,45.01-55.2,5.69-3.71,7.21-.4,13.17.2-1.65-4.77-18.67-18.8-21.45-16.61.79,3.18,4.57,4.43,4.77,8.27.26,7.68-37.66,49.84-45.21,58.45h0ZM782.26,822.18c-2.52-2.38-20.45,12.44-21.45,16.61l8.08-1.85c22.97,20.25,40.05,52.95,61.49,74.07,2.12,2.05,1.99,5.23,6.69,3.97l4.77-21.45c-8.8,8.87-12.25,1.26-19-6.02-5.43-5.89-43.16-52.49-44.15-55.93-1.19-4.24,4.5-8.67,3.57-9.53v.13ZM725.07,862.69c23.17-7.21,33.82,18.53,33.36,38.13-20.78-5.76-37.8-12.84-33.36-38.13-12.58,14.5-5.3,31.38,9.66,41.57,4.43,3.04,16.61,6.62,17.94,8.41,2.12,2.98-2.25,13.7-1.32,20.19,4.24,29.26,50.97,28.4,39.38-8.27-5.16-16.35-26.08-19.86-27.2-21.64-4.5-6.88,7.28-30.71-14.69-43.69-11.39-6.69-15.75-5.76-23.7,3.44h-.07ZM352.74,867.98c-42.16,6.88-69.44,93.26-26.21,101.47,25.48,4.83,50.44-27.73,56.59-49.58,6.69-23.76.86-56.99-30.45-51.89h.07ZM703.63,988.98c30.91-9.73,25.42-58.18,13.64-81.48-6.62-13.11-28.53-37.99-42.23-19.79-16.15,21.45,11.85,74.73,33.56,55.01,3.24-2.98,3.24-8.08,6.95-8.47,3.18,20.25,4.5,39.78-11.91,54.74ZM382.2,989.44c5.03-3.71,11.91,7.02,17.41,9.27,42.5,17.14,75.26-71.22,45.14-97.57-11.45-9.99-21.58-8.41-33.63-1.06-1.85,1.13-17.74,14.96-10.13,15.03,2.18-8.74,14.3-14.5,22.64-14.5,46.67-.07,14.5,108.22-24.42,91.35-12.91-5.63-8.74-23.03-11.32-33.96-5.56,10.26-7.68,24.29-8.34,35.74,4.04.99,1.52-3.51,2.65-4.3h0ZM629.62,900.95c-.4-.33-9.07-.46-9.4-.13-2.65,2.52,6.09,21.64,4.9,26.94-.6,2.65-12.18,3.38-4.9,15.95,2.32-.73,7.88-3.51,9.47-2.38,2.71,1.92,14.17,62.22,16.75,64.34.6.53,5.16-.26,7.08,0,.26-12.44,18-80.09,11.85-85.72l-30.85,7.08c-.66-3.64-3.97-25.15-4.9-26.08h0ZM549,948.21c-1.52-1.32-6.55-37.86-8.6-37.93l-8.34,38.13h-30.98c-3.97,3.57,22.37,23.23,23.23,27.67,1.52,7.88-8.94,26.81-6.55,36.67l22.64-21.38,22.64,23.76c1.72-10.06-8.94-30.65-6.75-38.79,1.26-4.7,23.9-25.55,21.05-27.93-5.1-1.06-26.28,1.52-28.33-.26v.07Z"/>
  <path class="cls-1" d="M888.83,540.07c0,192.69-156.21,348.9-348.9,348.9s-348.9-156.21-348.9-348.9,156.21-348.9,348.9-348.9,348.9,156.21,348.9,348.9ZM876.39,540.07c0-185.8-150.59-336.39-336.39-336.39s-336.39,150.59-336.39,336.39,150.59,336.39,336.39,336.39,336.39-150.59,336.39-336.39h0Z"/>
  <path class="cls-1" d="M549,948.21c2.12,1.79,23.23-.79,28.33.26,2.85,2.38-19.79,23.23-21.05,27.93-2.18,8.08,8.47,28.73,6.75,38.79l-22.64-23.76-22.64,21.38c-2.38-9.86,8.08-28.79,6.55-36.67-.86-4.5-27.27-24.09-23.23-27.67h30.98l8.34-38.19c1.99,0,7.02,36.6,8.6,37.93h0Z"/>
  <path class="cls-1" d="M729.97,166.94c-2.12,2.18-2.12,54.67,7.02,59.44-36.74,5.96-6.62-67.05-22.64-66.66-2.78.07-28.4,44.35-13.11,49.98-4.1-1.52-27.54-10.79-28.6-11.91-6.35-6.75,7.81-2.52,9.53-3.38,4.3-2.12,43.49-81.09,42.96-85.85-.4-3.91-3.91-5.23-4.83-8.41,25.15,9.07,57.52,21.84,35.74,53.62-9.07,13.3-25.09,12.11-26.15,13.17h.07ZM718.12,157.08c1.52,2.25,10.66,2.71,14.17,1.65,19.33-5.76,26.01-44.08,5.96-42.1-6.16.6-23.1,36.01-20.06,40.44h-.07Z"/>
  <path class="cls-1" d="M276.22,282.78c-5.49,6.09-16.81,13.44-22.97,19.92,3.18-9.86,2.32-11.39-3.57-19.13-6.29-8.27-49.64-52.36-57.12-57.32-6.35-4.17-7.61,1.19-13.17-.99,21.25-20.45,35.68-44.48,68.38-27.93,30.65,15.56,55.93,55.01,28.46,85.45ZM214.4,203.15c-5.96,1.39-16.48,9.33-12.51,16.15l60.83,63.28c45.41-20.32-14.03-87.31-48.32-79.43Z"/>
  <path class="cls-1" d="M179.39,631.54l-61.96,69.04c14.63-5.43,57.32-12.78,67.65-21.18,2.58-2.05.93-18.34,6.42-6.42,2.58,5.49,4.57,14.23,4.5,20.45-6.09-4.57-2.58-7.81-12.84-7.08-7.02.53-64.01,19.73-71.88,23.63-10.13,5.03-8.54,5.96-10.72,15.56-2.98,13.11-11.65-14.3-6.82-18.6l56.93-61.16c-13.64,7.21-55.4,13.37-65.2,21.18-2.65,2.05-.73,21.64-6.49,8.8-2.78-6.29-3.24-14.3-6.95-20.45,4.77-.79,6.29,4.17,10.86,4.83,17.74,2.52,74-29.46,96.38-28.66l.13.07Z"/>
  <path class="cls-1" d="M200.83,386.17c.53,6.29.26,3.91-3.57,4.63-28.59,5.36-58.12,8.41-86.91,11.98-.99,6.09.53,3.71,3.38,4.96,7.68,3.44,60.1,21.91,64.01,20.85,3.64-.99,5.23-5.96,8.87-6.82.93,1.19-6.88,29.65-11.85,22.64,4.17-5.89-.53-8.41-5.56-11.25-7.94-4.43-67.12-25.95-75.46-27.14-11.72-1.72-8.01,8.27-16.75,8.54l6.42-19.13,84.13-11.85c.99-6.09-.53-3.71-3.38-4.96-8.41-3.77-53.81-19.86-59.64-18.86-3.91.66-5.23,3.71-8.41,4.83l7.15-23.83c4.43-.33,1.39,5.89,3.51,9.53,4.17,7.08,81.15,30.12,94.13,35.74l-.07.13Z"/>
  <path class="cls-1" d="M352.74,867.98c31.31-5.1,37.13,28.2,30.45,51.89-6.16,21.84-31.11,54.41-56.59,49.58-43.29-8.21-16.02-94.59,26.21-101.47h-.07ZM371.87,877.51c-2.65-2.78-10.86-3.38-14.69-2.85-28.33,3.51-65.6,92.14-24.03,88.3,23.23-2.18,54.41-69.24,38.72-85.45Z"/>
  <path class="cls-1" d="M272.32,905.58c7.61-8.54,45.47-50.77,45.21-58.45-.13-3.84-3.97-5.1-4.77-8.27,2.78-2.18,19.79,11.85,21.45,16.61-5.96-.6-7.48-3.91-13.17-.2-4.7,3.04-39.98,47.79-45.01,55.2-8.27,12.31-10.66,13.44-3.84,28.4l-16.81-11.19,14.43-86.51c-7.08,9-44.81,49.58-42.5,57.85.73,2.58,4.17,3.84,4.43,6.49-2.58,2.32-20.39-12.38-21.45-16.61,3.38,0,6.09,2.25,9.6,1.39,12.18-2.98,51.89-67.45,66.66-77.64l-14.23,92.93h0Z"/>
  <path class="cls-1" d="M943.71,574.95c21.91-3.18,55.4,4.04,68.31,23.37,31.18,46.67-56.2,63.61-89.96,30.38-23.37-22.97-7.94-49.51,21.64-53.81v.07ZM938.94,586.86c-16.42,2.38-28.26,11.25-18.2,28.93,10.86,19,91.54,30.18,91.61.26,0-26.01-54.54-31.84-73.41-29.12v-.07Z"/>
  <path class="cls-1" d="M524.91,64.41c.46,4.5-6.16,1.39-8.47,4.57-5.43,7.35,11.05,87.17,8.47,102.66l-57.12-76.25c3.57,12.44,4.04,67.71,10.66,73.94,3.18,2.98,8.67.46,8.41,4.7l-26.21,2.38c-.46-4.43,7.88-3.04,9.2-5.1,4.5-7.21-9-68.44-6.95-81.75-.46-3.71-2.05-7.02-4.57-9.73-4.04-4.43-10.19-3.77-11.98-8.27,7.08,1.46,14.63-4.77,20.39-.26l49.98,69.3c-3.24-12.51-2.52-62.09-9.53-69.1-3.51-3.51-10.06.2-8.34-7.08h26.21-.13Z"/>
  <path class="cls-1" d="M833.1,775.31c33.56-33.56,117.29,44.22,77.71,76.52-32.83,26.81-112.26-41.97-77.71-76.52ZM841.11,777.36c-6.35,1.92-9.13,11.12-8.74,17.08,2.25,33.56,84.53,82.21,81.09,33.69-1.59-22.57-50.37-57.52-72.35-50.77Z"/>
  <path class="cls-1" d="M1025.32,548.14l-18.14,4.43-15.16.26,19.2-10.59c35.68-50.17-80.75-49.18-87.77-18.67-1.72,7.55-.99,20.45,7.81,22.11,3.97.73,31.71-1.59,35.41-2.78,4.17-1.32,4.24-8.21,8.67-9.13v28.6c-4.63-.46-1.39-5.89-8.27-7.21-8.67-1.72-39.38,2.45-43.75-.33-.73-.46-6.62-13.9-7.02-15.62-13.5-64.07,110.08-63.88,108.22-11.78-.33,9.99-12.84,18.53.79,20.65v.07Z"/>
  <path class="cls-1" d="M389.08,121.6c-9.47-5.89-14.03-17.94-27.14-16.68-38.52,3.84-8.8,86.05,19,90.42,7.74,1.26,24.69-.79,24.82-10.52,0-3.64-15.56-36.67-19.06-38.39-1.13-.53-13.04,3.11-7.08-3.38,1.19-1.26,22.17-7.94,26.21-9.53-14.23,14.89,13.64,37.6,9.13,53.09-2.91,10-24.16,17.94-33.82,17.54-47.79-1.99-65.93-97.37-24.03-103.86,8.67-1.32,20.45,4.5,17.74-7.28l14.23,28.59h0Z"/>
  <path class="cls-1" d="M601.16,66.79v23.83c-8.08,1.85-3.18-6.62-5.96-11.91-3.44-6.75-22.57-7.55-29.85-7.15l-2.38,42.89c6.49-.66,15.69,1.65,21.45-1.19,6.88-3.38,1.99-11.65,7.08-13.11-.46,9,.73,18.4,0,27.4-.2,2.78-.73,10.66-4.77,10.72,2.91-17.74-10.13-17.14-23.83-19.06l-4.83,41.7c.53,8.94,23.3,9.66,31.18,2.45,5.49-5.1,4.7-13.57,11.78-13.17-4.57,6.35-4.9,25.68-13.11,26.28l-51.23-4.9c1.26-5.69,8.08-2.58,10.33-7.61,1.85-4.17,3.31-24.82,3.97-31.71,1.39-14.36,4.63-47,2.45-59.64-.93-5.43-11.19-6.75-7.15-10.66.33-.33,5.3,2.38,8.21,2.45,15.62.6,30.98,2.25,46.6,2.32l.07.07Z"/>
  <path class="cls-1" d="M229.43,748.31c-10.39-9.47-17.61-2.98-27.8,1.99-21.31,10.39-41.3,24.62-62.75,34.95l-2.38,13.17c-4.9-4.9-28.33-43.82-28.13-46.47s16.55-13.64,20.98-13.04c-15.89,13.7-8.6,23.5,1.32,38.26l36.8-19.26c-6.62-11.91-7.35-22.84-23.83-19.06,1.32-4.5,24.82-15.42,26.21-14.23-8.8,4.9-2.58,26.87,3.84,28.4,2.12.46,35.61-18.14,36.41-20.45,1.99-5.89-4.57-20.59-9.27-23.43-5.49-3.31-17.21-.2-23.83-1.26.73-4.57,5.1-3.84,8.08-5.03,9.73-3.77,15.75-7.68,22.57,1.85,2.58,3.64,23.37,41.77,21.78,43.69v-.07Z"/>
  <path class="cls-1" d="M107.43,441.51c28.07-2.18,82.81,21.64,62.02,55.01-13.3,21.38-50.04,20.19-71.02,12.31-47.72-17.94-41.7-63.35,9-67.25v-.07ZM104.99,451.1c-14.5.53-36.27,7.41-32.43,26.21,5.1,24.76,88.56,38.46,94.46,9.53,5.43-26.41-43.55-36.41-62.09-35.74h.07Z"/>
  <path class="cls-1" d="M162.71,283.7c7.35,8.6-9,.13-10.92,0-13.24-1.26-15.03,15.62-22.44,23.76l38.06,21.51c2.65-12.44,15.36-17.67,2.45-28.59,3.18-2.45,29.92,12.38,26.21,16.68-13.57-8.08-20.52,4.43-23.7,16.48,9.2,1.52,30.65,20.78,37.2,21.45,4.24.4,14.1-16.68,14.69-20.59,1.26-8.67-8.34-14.3-9.13-22.04,3.77,2.85,18.07,15.03,18.67,18.2.79,4.17-23.37,39.32-27.07,46.14l-5.3-14.36c-23.63-10.86-45.14-29.52-68.11-40.77-8.27-4.04-10.13-6.75-18.27.4l26.21-47.66c2.91,3.11,20.65,8.67,21.38,9.6l.07-.2Z"/>
  <path class="cls-1" d="M169.85,562.44c-1.39,16.68,6.82,38.72,6.62,54.28,0,3.04-.79,3.44-3.04,5.23l-103.66-33.29c2.45,9.07.6,29.72,11.19,32.9,4.63,1.39,13.83-1.99,15.03,2.85l-28.59,2.45-7.15-52.42,107.23,30.91c-1.99-11.52-1.13-24.23-7.02-34.68l-21.58-8.14h30.98v-.07Z"/>
  <path class="cls-1" d="M1011.02,429l-88.1,48.92-9.53,10.66-4.77-26.21c5.49,10.72,33.16-4.96,32.9-10.19-.07-1.85-3.91-17.21-4.77-19.13-2.38-5.43-25.62-8.27-30.58-2.85-2.98,3.18-.46,8.67-4.7,8.34l-4.77-23.83c4.7,2.71,7.21,6.09,13.24,7.02,27.67,4.43,65.07-.66,92.87,2.45,3.57.4,7.35.53,8.27,4.83h-.07ZM984.81,429h-42.89l6.02,21.51,36.87-21.51h0Z"/>
  <path class="cls-1" d="M841.84,171.64l-34.09,88.56-2.78,18.6-20.32-17.81c15.82,4.17,14.3-13.9,21.18-24.29.26-3.24-18.6-17.34-21.98-17.01-3.64.33-19.46,11.85-20.32,15.56-.86,3.71,5.36,12.38-1.46,10.19-5.1-1.59-12.64-9.47-15.56-14.23,5.82.53,9.93-.13,15.16-2.71,20.19-10,49.05-37.8,69.9-51.63,3.31-2.18,5.89-5.82,10.19-5.23h.07ZM822.77,190.7c-4.63,4.17-30.05,19.2-30.85,22.84-1.13,5.16,12.84,10.52,15.42,15.22,2.58,0,17.08-36.07,15.49-38.06h-.07Z"/>
  <path class="cls-1" d="M634.52,91.81c-.53-4.04-7.94-19.53-7.15-20.25l28.6,7.15c.33,4.17-5.16,1.72-8.41,4.7-8.94,8.27,1.13,62.22,0,76.32,5.3-14.17,36.47-52.89,34.62-65.4-.6-3.91-3.77-5.3-4.83-8.47l23.83,4.77c-28.26,23.03-39.38,64.07-61.23,92.27-1.52,1.99,0,4.3-5.49,2.98-2.71-29.59,3.64-65.33,0-94.13l.07.07Z"/>
  <path class="cls-1" d="M725.07,862.69c8.01-9.2,12.38-10.13,23.7-3.44,22.04,12.91,10.19,36.74,14.69,43.69,1.13,1.79,22.11,5.3,27.2,21.64,11.52,36.67-35.21,37.53-39.38,8.27-.93-6.42,3.51-17.14,1.32-20.19-1.26-1.79-13.5-5.43-17.94-8.41-14.96-10.19-22.24-27.01-9.66-41.57-4.5,25.29,12.58,32.37,33.36,38.13.53-19.59-10.19-45.34-33.36-38.13h.07ZM784.05,945.49c11.91-11.78-12.38-33.36-25.62-30.38-5.23,13.3,11.45,44.35,25.62,30.38Z"/>
  <path class="cls-1" d="M196.07,874.6c-4.17-1.06-21.12-21.71-19-23.83,2.78.79,5.1,2.71,8.21,2.45,9.53-.86,36.74-50.9,44.08-60.9-12.11,6.82-56.99,20.25-64.34,28.6-3.51,4.04-2.38,8.47-2.38,13.17-5.56,1.52-4.04-1.46-5.43-3.04-1.52-1.72-12.31-15.09-11.25-16.02l14.23,1.32,92.93-41.83c.93,3.64-1.39,5.23-2.85,7.88-11.12,20.78-47.19,61.16-53.02,78.04-1.72,4.9-1.59,9.13-1.32,14.23l.13-.07Z"/>
  <path class="cls-1" d="M629.62,900.95c.99.93,4.24,22.44,4.9,26.08l30.85-7.08c6.16,5.56-11.58,73.27-11.85,85.72-1.92-.26-6.49.53-7.08,0-2.58-2.12-14.03-62.42-16.75-64.34-1.59-1.13-7.21,1.65-9.47,2.38-7.28-12.58,4.3-13.24,4.9-15.95,1.19-5.3-7.55-24.42-4.9-26.94.33-.33,9-.26,9.4.13h0ZM660.73,931.79l-21.45,4.77,9.53,45.28c6.29.6,3.84.13,4.7-3.57,1.39-6.09,8.87-44.61,7.15-46.47h.07Z"/>
  <path class="cls-1" d="M880.69,721.37l77.18,43.22c5.03.53,9.6-8.54,9.4-12.84-.26-6.49-9.33-9.6-9.8-15.42,5.1,4.9,22.04,7.35,19.39,16.68-.73,2.52-23.1,42.83-25.29,44.15-4.77,3.04-20.78-5.56-23.83-10.86,11.32,5.3,30.98,1.52,23.76-13.11-21.91-9-52.29-34.82-73.8-40.71-7.41-2.05-8.47-.4-14.3,3.71-1.99-2.38,11.91-25.22,15.49-28.6,2.12,4.24-2.91,9.47,1.85,13.57l-.07.2Z"/>
  <path class="cls-1" d="M703.63,988.98c16.42-15.03,15.09-34.49,11.91-54.74-3.71.4-3.71,5.49-6.95,8.47-21.71,19.73-49.71-33.56-33.56-55.01,13.7-18.2,35.61,6.69,42.23,19.79,11.78,23.37,17.34,71.75-13.64,81.48ZM692.57,933.31c7.35,6.55,14.63,8.41,18.86-2.25,4.04-10.06-14.76-47.99-30.12-44.75-9.93,11.45,1.72,38.52,11.25,47h0Z"/>
  <path class="cls-1" d="M879.96,350.36c3.31,10.26,7.61,26.08,21.45,23.83,2.98,2.25-16.68,9.27-20.98,6.75-3.71-2.18-15.29-32.04-19.53-37.73,31.38,1.13,75.79,14.69,95.38-18,2.05-13.83-13.37-16.22-23.9-12.97,18.6-18.6,52.16.2,30.98,25.09-19.26,22.7-57.92,13.57-83.4,13.11v-.07Z"/>
  <path class="cls-1" d="M382.2,989.44c-1.06.79,1.39,5.3-2.65,4.3.66-11.39,2.78-25.48,8.34-35.74,2.58,10.92-1.59,28.33,11.32,33.96,38.92,16.88,71.09-91.41,24.42-91.35-8.41,0-20.52,5.76-22.64,14.5-7.61-.07,8.27-13.9,10.13-15.03,12.05-7.35,22.24-8.94,33.63,1.06,30.12,26.34-2.65,114.71-45.14,97.57-5.49-2.25-12.38-12.91-17.41-9.27h0Z"/>
  <path class="cls-1" d="M866.86,300.32c14.96-1.52,52.29-10.26,55.6-28,3.31-17.74-14.1-15.09-25.81-13.7,32.17-25.42,55.87,11.05,23.63,33.16-19.26,13.24-48.85,10.52-71.36,13.3,7.61,9.47,11.58,24.82,26.21,21.45-1.52,4.83-14.63,10.26-19,8.41-4.83-2.05-21.58-27.8-23.9-34.62,11.19-.79,23.56,1.13,34.55,0h.07Z"/>
  <path class="cls-1" d="M274.7,145.43c-.99,2.78-2.58,5.16-2.52,8.34.2,8.41,32.24,50.97,39.72,60.5,6.88,8.74,12.11,22.11,24.76,14.56,3.97,4.1-22.37,19.06-25.02,21.45-3.84-3.64,3.64-6.49,3.64-10.66,0-4.7-50.64-74.53-54.94-76.39s-5.89.07-9.4,1.32c-4.04-4.17,22.17-20.65,23.83-19.06l-.07-.07Z"/>
  <path class="cls-1" d="M429.59,73.94c1.13.86-5.96,6.16-6.75,8.87-3.71,12.91,20.39,71.88,21.45,89.62,1.19,6.42,10.92,1.13,11.52,6.29l-30.98,7.15c9.8-6.88,7.94-10.26,6.09-21.58-4.24-25.55-14.76-55.4-22.7-79.76l-9.53-3.51,30.98-7.15-.07.07Z"/>
  <path class="cls-1" d="M64.94,521.93c.4.33.2,4.1,2.45,5.76,6.82,5.16,90.02,5.82,96.24,1.59,3.31-2.25-1.59-9.33,6.16-7.35v28.6c-7.74,1.99-2.85-5.1-6.16-7.35-5.16-3.51-92.07-3.57-97.3,0-3.31,2.25,1.59,9.33-6.16,7.35v-27.4c-.33-2.05,4.43-1.39,4.7-1.19h.07Z"/>
  <path class="cls-1" d="M782.26,822.18c.93.86-4.77,5.3-3.57,9.53.99,3.44,38.72,50.04,44.15,55.93,6.69,7.28,10.19,14.89,19,6.02l-4.77,21.45c-4.7,1.19-4.63-1.92-6.69-3.97-21.45-21.12-38.52-53.88-61.49-74.07l-8.08,1.85c.99-4.24,18.93-19,21.45-16.61v-.13Z"/>
  <path class="cls-1" d="M934.77,655.37s.86,5.03-1.13,4.7c-15.62-9.73-45.67,5.43-29.85,22.7,17.47,19.13,40.11-9.27,56.59-12.64,18.47-3.84,46.53,12.44,35.81,33.49-3.77,7.41-11.85,7.61-6.62,18.4l-30.91-13.11c37.86,12.78,45.34-36.87,7.02-26.28-11.65,3.24-20.12,16.35-34.42,18-20.85,2.38-48.19-13.83-35.61-35.61,3.91-6.75,12.71-8.01,5.76-19.2,4.63,1.32,32.17,8.27,33.36,9.53Z"/>
  <path class="cls-1" d="M173.43,722.09c1.52.79,1.52,1.59,0,2.38v-2.38Z"/>
  <path class="cls-2" d="M876.39,540.07c0,185.8-150.59,336.39-336.39,336.39s-336.39-150.59-336.39-336.39,150.59-336.39,336.39-336.39,336.39,150.59,336.39,336.39h0ZM624.99,286.02h-169.19v169.19h-169.19v169.19h169.19v169.19h169.19v-169.19h169.19v-169.19h-169.19v-169.19Z"/>
  <path class="cls-3" d="M718.12,157.08c-3.04-4.43,13.97-39.85,20.06-40.44,20.06-1.99,13.37,36.34-5.96,42.1-3.44,1.06-12.58.6-14.17-1.65h.07Z"/>
  <path class="cls-3" d="M214.4,203.15c34.29-7.88,93.73,59.11,48.32,79.43l-60.83-63.28c-3.97-6.82,6.55-14.76,12.51-16.15Z"/>
  <path class="cls-3" d="M371.87,877.51c15.69,16.15-15.56,83.27-38.72,85.45-41.57,3.84-4.3-84.79,24.03-88.3,3.91-.46,12.05.13,14.69,2.85Z"/>
  <path class="cls-3" d="M938.94,586.86c18.86-2.71,73.41,3.18,73.41,29.12,0,29.92-80.75,18.73-91.61-.26-10.06-17.61,1.79-26.54,18.2-28.93v.07Z"/>
  <path class="cls-3" d="M841.11,777.36c22.04-6.69,70.76,28.2,72.35,50.77,3.44,48.52-78.83-.13-81.09-33.69-.4-6.02,2.38-15.16,8.74-17.08Z"/>
  <path class="cls-3" d="M104.99,451.1c18.47-.66,67.52,9.33,62.09,35.74-5.96,28.93-89.36,15.22-94.46-9.53-3.91-18.8,17.94-25.68,32.43-26.21h-.07Z"/>
  <polygon class="cls-3" points="984.81 429 947.94 450.51 941.92 429 984.81 429"/>
  <path class="cls-3" d="M822.77,190.7c1.59,2.05-12.84,38.06-15.49,38.06-2.58-4.7-16.48-10.06-15.42-15.22.79-3.71,26.21-18.73,30.85-22.84h.07Z"/>
  <path class="cls-3" d="M784.05,945.49c-14.17,13.97-30.85-17.08-25.62-30.38,13.24-2.98,37.53,18.6,25.62,30.38Z"/>
  <path class="cls-3" d="M660.73,931.79c1.65,1.85-5.76,40.38-7.15,46.47-.86,3.71,1.59,4.17-4.7,3.57l-9.53-45.28,21.45-4.77h-.07Z"/>
  <path class="cls-3" d="M692.57,933.31c-9.53-8.47-21.18-35.55-11.25-47,15.36-3.31,34.16,34.68,30.12,44.75-4.24,10.66-11.52,8.8-18.86,2.25h0Z"/>
  <polygon class="cls-1" points="624.99 286.02 624.99 455.21 794.18 455.21 794.18 624.39 624.99 624.39 624.99 793.58 455.8 793.58 455.8 624.39 286.62 624.39 286.62 455.21 455.8 455.21 455.8 286.02 624.99 286.02"/>
</svg>